<?xml version="1.0" encoding="utf-8"?>
<!-- Generator: Adobe Illustrator 23.0.2, SVG Export Plug-In . SVG Version: 6.00 Build 0)  -->
<svg version="1.1" id="Warstwa_2" xmlns="http://www.w3.org/2000/svg" xmlns:xlink="http://www.w3.org/1999/xlink" x="0px" y="0px"
	 viewBox="0 0 3037.4 1743.1" style="enable-background:new 0 0 3037.4 1743.1;" xml:space="preserve">
<style type="text/css">
	.st0{fill:#FAF1E0;}
	.st1{fill:#D5B096;}
	.st2{fill:#E7CBA8;}
	.st3{fill:none;stroke:#000000;stroke-width:8.2187;stroke-miterlimit:10;}
	.st4{fill:#F2EAC0;}
	.st5{fill:#AECA54;stroke:#000000;stroke-width:4;stroke-miterlimit:10;}
	.st6{fill:none;stroke:#000000;stroke-width:4;stroke-linecap:round;stroke-miterlimit:10;}
	.st7{fill:#C98345;}
	.st8{fill:#A05124;}
</style>
<g>
	<rect y="-200.3" class="st0" width="3037.4" height="1667.7"/>
	<circle class="st1" cx="913.1" cy="463.1" r="352.2"/>
	<path class="st2" d="M104.5,1143.7c0,0,73.3-41.1,99.9-89.9c26.6-48.9,51.1-81.1,51.1-81.1s88.8-108.8,107.7-272
		c0,0,134.3-41.1,276.5-31.1c0,0,55.5,64.4,89.9,142.1c17.7,40,32.5,73.3,42.7,96.1c14.7,33.1,35.3,63.4,61.1,88.8
		c3.3,3.3,6.7,6.5,10.2,9.5c18.3,16,32.2,36.4,39.8,59.5c4.3,13,11,26.3,21.6,34.8c26.6,21.1,82.2,38.6,81.1,66.4
		c-165.4-24.5-298.8-29.3-392.4-28.8c-74.8,0.4-150.2-0.2-317.2,5.5C204.3,1146,144.6,1143.9,104.5,1143.7z"/>
	<g>
		<line class="st3" x1="1668.8" y1="-100.1" x2="2763.1" y2="-100.1"/>
		<line class="st3" x1="2216" y1="-10.4" x2="2901" y2="-10.4"/>
		<line class="st3" x1="1351.6" y1="336.7" x2="2103.3" y2="336.7"/>
		<line class="st3" x1="1169.9" y1="778.1" x2="1694.1" y2="778.1"/>
		<line class="st3" x1="1452.7" y1="819.5" x2="2195.3" y2="819.5"/>
		<line class="st3" x1="1432" y1="1079.2" x2="1878" y2="1079.2"/>
		<line class="st3" x1="0" y1="336.7" x2="498.7" y2="336.7"/>
		<line class="st3" x1="379.1" y1="499.9" x2="622.8" y2="499.9"/>
		<line class="st3" x1="0" y1="649.3" x2="287.2" y2="649.3"/>
		<line class="st3" x1="165.3" y1="679.2" x2="298.7" y2="679.2"/>
	</g>
	<path class="st4" d="M3037.4,1099.6c-397.7-24.4-1347.4,79.2-1347.4,79.2s-385.5,32.5-714.3-13.5s-702.1-21.6-702.1-21.6H0v233.2
		h3037.4V1099.6"/>
	<g>
		<path class="st5" d="M542.5,1254.4l-1.4-68.4c0-0.3,0-0.7,0.1-1c0-0.1,0-0.1,0-0.2c2.8-19.7,18.6-34.9,38.4-37.6
			c7.8-1,16.8-3.8,21.1-10.8c3.4-5.5,6.8-10.9,10.7-16.1l9.9-13.3c15.3-20.6,20.4-47.1,13.1-71.6c-3.3-11-9-21.4-18.7-28.5
			c-10.3-7.6-25.1-4.2-31.1,7.1c-5.3,10.1-9.5,27.7-8.2,58.2c0.3,6.2-0.6,12.3-2.6,18.2c-3.3,9.5-9.3,17.8-18.3-5.4
			c-4.8-12.4-7-27.4-7.9-41.8c-1.5-25,1.1-50,7.3-74.3c10.3-40.7,29.7-138-6.8-184.9c-11.4-14.6-44.2-33-71.4-3.8
			c-11.4,12.2-21,32.6-21.2,66.3c-0.1,18.8,2.8,37.5,8.4,55.4l16.5,53c2.6,8.2,3.2,16.9,1.7,25.4c-1.8,10.4-6.6,19.1-18.7,2.7
			c-4-5.4-7.1-11.4-9.5-17.7c-3.6-9.7-9.5-27.9-13.8-53.9c-6.8-40.8-43.5-20.4-43.5-20.4s-51.4,30-8.3,130.2c0,0,3.9,10.2,12.6,21.1
			c10.3,12.9,25.2,21.1,41.5,23.6c8.4,1.3,20.2,5.1,23.8,16.1c0.7,2,0.9,4.1,0.9,6.2l0.3,167.8l42.2,2.7L542.5,1254.4z"/>
		<g>
			<path class="st6" d="M492,1251.8c0,0,3.6,2.6,3.6,7.5"/>
			<line class="st6" x1="471.4" y1="1221.7" x2="479" y2="1231.8"/>
			<line class="st6" x1="495.6" y1="1234.2" x2="505.8" y2="1241.6"/>
			<line class="st6" x1="528.5" y1="1230.1" x2="540" y2="1237.9"/>
			<line class="st6" x1="495.6" y1="1217.3" x2="500.7" y2="1223.1"/>
			<line class="st6" x1="516.3" y1="1183.9" x2="509.4" y2="1200.7"/>
			<line class="st6" x1="530.1" y1="1200.7" x2="543.3" y2="1192.3"/>
			<path class="st6" d="M459.6,1183.9c0,0,13.3,6.3,17.9,14.2"/>
			<line class="st6" x1="458.4" y1="1158.6" x2="466.5" y2="1163.1"/>
			<line class="st6" x1="519.3" y1="1147.3" x2="514.5" y2="1163.1"/>
			<line class="st6" x1="530.1" y1="1153.3" x2="541.5" y2="1145.8"/>
			<path class="st6" d="M571.3,1140.2c0,0,3,4.3,5.6,19.2"/>
			<line class="st6" x1="588.8" y1="1144.7" x2="593.8" y2="1157.2"/>
			<line class="st6" x1="604.8" y1="1126" x2="615.8" y2="1135.8"/>
			<line class="st6" x1="629.8" y1="1062.2" x2="652.5" y2="1051.1"/>
			<path class="st6" d="M581.9,1130.9c0,0,9.1,14.3,29.8-35.1"/>
			<line class="st6" x1="615.8" y1="1060.2" x2="615.8" y2="1082.7"/>
			<path class="st6" d="M643.3,1093.9c0,0-17.6-5-27.5-1.7"/>
			<line class="st6" x1="629.6" y1="1039.4" x2="634.2" y2="1034.1"/>
			<line class="st6" x1="611.7" y1="1051.1" x2="621.3" y2="1045.4"/>
			<path class="st6" d="M615.8,1020.9c0,0-0.7-8.9,4-12.9"/>
			<line class="st6" x1="601.7" y1="1023.6" x2="601.7" y2="1004.4"/>
			<path class="st6" d="M593.8,1036.8c0,0-2-11.2-11.9-15.8"/>
			<path class="st6" d="M593.8,1062.2c0,0-0.4,12.9,4.8,11.6"/>
			<line class="st6" x1="592.6" y1="1095.8" x2="601.7" y2="1097.2"/>
			<line class="st6" x1="566.4" y1="1073.8" x2="579.3" y2="1082.7"/>
			<line class="st6" x1="567.8" y1="1054.9" x2="579.3" y2="1065.2"/>
			<line class="st6" x1="553.4" y1="1068" x2="543.3" y2="1076.4"/>
			<line class="st6" x1="556.9" y1="1119.6" x2="566.4" y2="1126"/>
			<line class="st6" x1="534.3" y1="1119.6" x2="540" y2="1122.8"/>
			<line class="st6" x1="528.5" y1="1109.7" x2="537.1" y2="1098.8"/>
			<line class="st6" x1="500.7" y1="1087.6" x2="505.8" y2="1101.1"/>
			<line class="st6" x1="511.1" y1="1060" x2="516.9" y2="1065.2"/>
			<path class="st6" d="M471.4,1078.2c0,0,1.8,1.3,3.9,3.9c3.9,4.7,5.8,10.6,5.6,16.6L479,1182c0,0-0.1,5.9,3,9.6"/>
			<path class="st6" d="M459.6,1111.2c0,0-3.1,11.3,10.6,17.9"/>
			<path class="st6" d="M452.6,1092.5c0,0,0.9-5.6,12.2-4.9"/>
			<line class="st6" x1="413.5" y1="1078.2" x2="425.5" y2="1060"/>
			<line class="st6" x1="375.3" y1="1034.1" x2="394.3" y2="1034.1"/>
			<path class="st6" d="M373.6,975.5c0,0,2.5,7.1,11.2,11.3"/>
			<line class="st6" x1="363.6" y1="941" x2="375.3" y2="945.8"/>
			<line class="st6" x1="394.3" y1="906" x2="395.9" y2="916"/>
			<line class="st6" x1="416.9" y1="889.4" x2="416.9" y2="906"/>
			<line class="st6" x1="437.8" y1="920.7" x2="447.3" y2="912.3"/>
			<line class="st6" x1="426.7" y1="931.8" x2="415.2" y2="938.1"/>
			<path class="st6" d="M397.1,931.8c0,0-7.6,52.1,8.4,78c3.6,5.9,10,9.8,17,11.3c2.1,0.4,5.1,1.3,5.6,3.7c1.3,6.9,12.6,12,12.6,12"
				/>
			<path class="st6" d="M440.6,1043.6c0,0,5.5,8.7,17.8,10"/>
			<path class="st6" d="M475.2,1034.1c0,0,14.9-5,14.9-36.2"/>
			<line class="st6" x1="442.6" y1="1019.8" x2="455.7" y2="1008.1"/>
			<line class="st6" x1="428.8" y1="973.6" x2="423" y2="993.2"/>
			<line class="st6" x1="447.3" y1="971.3" x2="459.6" y2="959.4"/>
			<path class="st6" d="M453.5,911c0,0,8.4,7,20.3,9.7"/>
			<path class="st6" d="M495.6,959.4c0,0,2.5,9,10.2,5.9"/>
			<line class="st6" x1="522" y1="991.9" x2="522" y2="1001.2"/>
			<line class="st6" x1="514.5" y1="1031.7" x2="531.2" y2="1019.8"/>
			<line class="st6" x1="476.7" y1="1056.6" x2="482" y2="1071.4"/>
			<line class="st6" x1="442.6" y1="850.6" x2="462.2" y2="853.5"/>
			<line class="st6" x1="449.1" y1="813.1" x2="464.8" y2="823.7"/>
			<line class="st6" x1="493.8" y1="774.9" x2="500.7" y2="791.2"/>
			<line class="st6" x1="541.8" y1="774.9" x2="537.1" y2="797.3"/>
			<line class="st6" x1="551.6" y1="827.8" x2="566.4" y2="814.3"/>
			<line class="st6" x1="579.3" y1="853.5" x2="567.8" y2="867"/>
			<line class="st6" x1="566.4" y1="915.9" x2="581.9" y2="909"/>
			<line class="st6" x1="555.7" y1="962.7" x2="567.8" y2="962.7"/>
			<line class="st6" x1="551.6" y1="996.5" x2="567.8" y2="986.9"/>
			<path class="st6" d="M541.8,884.3c0,0,1.6,4.2,11.7,3.2"/>
			<line class="st6" x1="491.8" y1="826.2" x2="503.3" y2="836.2"/>
			<line class="st6" x1="526.5" y1="831.2" x2="532.8" y2="821.1"/>
			<line class="st6" x1="505.8" y1="892.4" x2="503.3" y2="911"/>
			<line class="st6" x1="539.4" y1="926.7" x2="559" y2="931.8"/>
			<path class="st6" d="M482,829.8c0,0-10,25.5,2.6,56.2c12.6,30.7,12.9,40.7,12.9,40.7s-1.1,19.9,5.8,31.5"/>
		</g>
	</g>
	<path class="st2" d="M998.9,1168.4c0,0,46.1-17.8,58.4-102h27.5c0,0,15,90.4,71.7,116.8c-27.2-1.7-55.1-3.9-83.8-6.6
		C1047.4,1174.2,1022.8,1171.4,998.9,1168.4z"/>
	<path class="st2" d="M3037.4,888.5h-34.6c-54.6,204.5-108.4,206.8-108.4,206.8l143,4.3V888.5z"/>
	<path class="st2" d="M0,1259.8c0,0,520.9-27.1,811.8,40.2c73.6,17,148.3,29.5,223.5,36.1c76.7,6.8,161.8,11.5,203.8,4.3
		c58.7-10,145.5-15.6,230.4-8.3c112.8,9.8,226.3,10.3,339-0.4h0c13.6-1.3,27.1-3.7,40.4-7.1c84.7-21.9,422.1-106.9,593.9-118
		c197.4-12.7,594.6,48.8,594.6,48.8v293.2H0V1259.8z"/>
	<g>
		<path class="st5" d="M2555,1352.8l-2.6-125.6c0-0.6,0-1.2,0.1-1.8c0-0.1,0-0.2,0-0.3c5.2-36.2,34-64.2,70.2-69
			c14.3-1.9,30.6-7,38.6-19.8c6.2-10.1,12.5-20.1,19.5-29.6l18.1-24.5c27.9-37.8,37.2-86.5,23.9-131.5c-6-20.2-16.4-39.3-34.2-52.4
			c-18.9-13.9-45.9-7.7-56.8,13c-9.8,18.6-17.4,50.9-15.1,107c0.5,11.3-1.1,22.7-4.7,33.4c-6,17.5-17,32.8-33.4-9.9
			c-8.8-22.8-12.8-50.3-14.4-76.9c-2.7-45.9,2-91.9,13.3-136.4c18.9-74.7,54.3-253.5-12.4-339.6c-32.4-41.8-94.6-45.7-130.5-7
			c-20.9,22.5-38.3,59.9-38.7,121.9c-0.2,34.5,5.2,68.8,15.4,101.8l30.1,97.3c4.7,15.1,5.9,31.1,3.1,46.7c-3.4,19.1-12,35.1-34.2,5
			c-7.3-9.9-13-20.9-17.3-32.5c-6.7-17.9-17.3-51.2-25.2-98.9c-12.5-74.9-79.5-37.5-79.5-37.5s-94,55.2-15.1,239.2
			c0,0,7.2,18.8,23,38.7c18.7,23.6,46,38.7,75.8,43.4c15.4,2.4,36.9,9.5,43.4,29.6c1.2,3.7,1.7,7.5,1.7,11.4l0.5,308.3l77,4.9
			L2555,1352.8z"/>
		<g>
			<path class="st6" d="M2462.7,1347.2c0,0,6.5,5.1,6.5,14.5"/>
			<line class="st6" x1="2424.9" y1="1288.9" x2="2438.9" y2="1308.5"/>
			<line class="st6" x1="2469.2" y1="1313.1" x2="2487.9" y2="1327.6"/>
			<line class="st6" x1="2529.3" y1="1305.2" x2="2550.3" y2="1320.4"/>
			<line class="st6" x1="2469.2" y1="1280.5" x2="2478.5" y2="1291.7"/>
			<line class="st6" x1="2507" y1="1215.7" x2="2494.4" y2="1248.3"/>
			<line class="st6" x1="2532.1" y1="1248.3" x2="2556.4" y2="1232"/>
			<path class="st6" d="M2403.5,1215.7c0,0,24.2,12.1,32.6,27.5"/>
			<line class="st6" x1="2401.1" y1="1166.7" x2="2416.1" y2="1175.6"/>
			<line class="st6" x1="2512.6" y1="1144.8" x2="2503.7" y2="1175.6"/>
			<line class="st6" x1="2532.1" y1="1156.5" x2="2553.1" y2="1142"/>
			<path class="st6" d="M2607.5,1131.2c0,0,5.5,8.3,10.3,37.1"/>
			<line class="st6" x1="2639.5" y1="1139.9" x2="2648.6" y2="1164"/>
			<line class="st6" x1="2668.7" y1="1103.6" x2="2688.8" y2="1122.5"/>
			<line class="st6" x1="2714.5" y1="980" x2="2756" y2="958.7"/>
			<path class="st6" d="M2626.9,1113.1c0,0,16.6,27.6,54.5-67.9"/>
			<line class="st6" x1="2688.8" y1="976.3" x2="2688.8" y2="1019.7"/>
			<path class="st6" d="M2739.1,1041.5c0,0-32.2-9.6-50.3-3.2"/>
			<line class="st6" x1="2714" y1="936" x2="2722.5" y2="925.8"/>
			<line class="st6" x1="2681.3" y1="958.7" x2="2698.9" y2="947.5"/>
			<path class="st6" d="M2688.8,900.2c0,0-1.3-17.3,7.2-24.9"/>
			<line class="st6" x1="2663.1" y1="905.3" x2="2663.1" y2="868.3"/>
			<path class="st6" d="M2648.6,930.9c0,0-3.6-21.7-21.7-30.7"/>
			<path class="st6" d="M2648.6,980c0,0-0.8,25,8.8,22.4"/>
			<line class="st6" x1="2646.5" y1="1045.2" x2="2663.1" y2="1047.9"/>
			<line class="st6" x1="2598.5" y1="1002.7" x2="2622.2" y2="1019.7"/>
			<line class="st6" x1="2601.1" y1="966.1" x2="2622.2" y2="985.9"/>
			<line class="st6" x1="2574.9" y1="991.3" x2="2556.4" y2="1007.6"/>
			<line class="st6" x1="2581.3" y1="1091.3" x2="2598.5" y2="1103.6"/>
			<line class="st6" x1="2539.8" y1="1091.3" x2="2550.3" y2="1097.5"/>
			<line class="st6" x1="2529.3" y1="1072.1" x2="2545.1" y2="1051"/>
			<line class="st6" x1="2478.5" y1="1029.3" x2="2487.9" y2="1055.5"/>
			<line class="st6" x1="2497.6" y1="976" x2="2508.1" y2="985.9"/>
			<path class="st6" d="M2424.9,1011.2c0,0,3.3,2.5,7.2,7.5c7.1,9.1,10.6,20.5,10.3,32.1l-3.5,161.3c0,0-0.3,11.4,5.4,18.5"/>
			<path class="st6" d="M2403.5,1075.1c0,0-5.7,21.9,19.3,34.7"/>
			<path class="st6" d="M2390.6,1038.8c0,0,1.6-10.8,22.2-9.4"/>
			<line class="st6" x1="2319.2" y1="1011.2" x2="2341.1" y2="976"/>
			<line class="st6" x1="2249.3" y1="925.8" x2="2284" y2="925.8"/>
			<path class="st6" d="M2246.2,812.3c0,0,4.6,13.8,20.4,21.9"/>
			<line class="st6" x1="2227.9" y1="745.5" x2="2249.3" y2="754.7"/>
			<line class="st6" x1="2284" y1="677.6" x2="2287.1" y2="697"/>
			<line class="st6" x1="2325.3" y1="645.5" x2="2325.3" y2="677.6"/>
			<line class="st6" x1="2363.6" y1="706.2" x2="2380.9" y2="689.9"/>
			<line class="st6" x1="2343.2" y1="727.6" x2="2322.3" y2="739.9"/>
			<path class="st6" d="M2289.1,727.6c0,0-13.8,100.9,15.3,151c6.7,11.5,18.2,19.1,31.1,21.9c3.9,0.9,9.3,2.4,10.2,7.2
				c2.4,13.3,23,23.2,23,23.2"/>
			<path class="st6" d="M2368.7,944c0,0,10,16.8,32.4,19.3"/>
			<path class="st6" d="M2431.9,925.8c0,0,27.1-9.7,27.1-70"/>
			<line class="st6" x1="2372.3" y1="898" x2="2396.3" y2="875.3"/>
			<line class="st6" x1="2347.2" y1="808.5" x2="2336.6" y2="846.4"/>
			<line class="st6" x1="2380.9" y1="804.2" x2="2403.5" y2="781.2"/>
			<path class="st6" d="M2392.2,687.3c0,0,15.3,13.5,37,18.9"/>
			<path class="st6" d="M2469.2,781.2c0,0,4.6,17.4,18.6,11.5"/>
			<line class="st6" x1="2517.5" y1="843.9" x2="2517.5" y2="862"/>
			<line class="st6" x1="2503.7" y1="921" x2="2534.3" y2="898"/>
			<line class="st6" x1="2434.6" y1="969.4" x2="2444.3" y2="998"/>
			<line class="st6" x1="2372.3" y1="570.4" x2="2408.1" y2="576"/>
			<line class="st6" x1="2384.3" y1="497.7" x2="2412.8" y2="518.2"/>
			<line class="st6" x1="2465.9" y1="423.7" x2="2478.5" y2="455.4"/>
			<line class="st6" x1="2553.5" y1="423.7" x2="2545.1" y2="467.2"/>
			<line class="st6" x1="2571.6" y1="526.3" x2="2598.5" y2="500.2"/>
			<line class="st6" x1="2622.2" y1="576" x2="2601.1" y2="602.1"/>
			<line class="st6" x1="2598.5" y1="696.8" x2="2626.9" y2="683.6"/>
			<line class="st6" x1="2579" y1="787.5" x2="2601.1" y2="787.5"/>
			<line class="st6" x1="2571.6" y1="852.9" x2="2601.1" y2="834.3"/>
			<path class="st6" d="M2553.5,635.7c0,0,2.9,8.1,21.4,6.2"/>
			<line class="st6" x1="2462.2" y1="523.2" x2="2483.2" y2="542.5"/>
			<line class="st6" x1="2525.6" y1="532.8" x2="2537.2" y2="513.2"/>
			<line class="st6" x1="2487.9" y1="651.2" x2="2483.2" y2="687.3"/>
			<line class="st6" x1="2549.3" y1="717.7" x2="2585.1" y2="727.6"/>
			<path class="st6" d="M2444.3,530c0,0-18.2,49.4,4.8,108.9s23.6,78.8,23.6,78.8s-2,38.5,10.5,60.9"/>
		</g>
	</g>
	<path class="st7" d="M3037.4,1959.7H0v-464.2l865.3-18.8c0,0,292.4-34.9,532.7-28.3c144.6,3.9,289.3-2.6,433-19.3l592-68.6
		c0,0,313.6-37.3,614.4,53.8V1959.7z"/>
	<path class="st8" d="M0,1579.5l458.9,13.5l100.7,6c43.1,2.6,86.1,7.6,128.6,15.2c73.2,13.1,214.8,33.6,389.4,35.6
		c112.2,1.3,193.8,3.2,250,4.9c54.1,1.6,108.1,0.8,162.1-1.9c48.2-2.4,118.5-0.2,180.7,24c107.7,41.9,243.8,110.7,374,122.7H0
		V1579.5z"/>
</g>
</svg>
