<?xml version="1.0" encoding="utf-8"?>
<!-- Generator: Adobe Illustrator 23.0.2, SVG Export Plug-In . SVG Version: 6.00 Build 0)  -->
<svg version="1.1" id="Layer_1" xmlns="http://www.w3.org/2000/svg" xmlns:xlink="http://www.w3.org/1999/xlink" x="0px" y="0px"
	 viewBox="0 0 440.09 95.81" style="enable-background:new 0 0 440.09 95.81;" xml:space="preserve">
<style type="text/css">
	.st0{fill:#FFFFFF;}
	.st1{fill:#000100;}
	.st2{fill:#D47376;}
	.st3{fill:#F26A5B;}
</style>
<g>
	<g>
		<path class="st0" d="M76.21,13.53c0,0-14.24-1.08-17.27,7.34c0,0-0.58-1.99,0-3.69c0,0-4.17,0.81-4.03,7.72
			c0,0-6.98-5.68-19.93-2.45c0,0,0.58-5.32-1.73-7.05c0,0,0.05,1.96-0.54,2.55c0,0-3.35-9.17-16.51-6.29c0,0,1.36,4.22,0.94,6.34
			c-0.42,2.11,0.43,5.67,3.38,8.84c0,0,0.13,0.96,0.05,1.64l0.65,1.19c0,0-4.05-0.27-5.61-1.67c0,0,3.67,3.45,7.45,4.42
			c0,0-2.64-0.43-4.69-0.32c0,0,0.76,0.32,1.29,0.76c0,0-3.51-0.16-4.48,1.4c0,0,2.21-0.22,7.28,0c0,0-3.72,0.59-3.88,2.16
			c0,0,2.48-0.76,4.21,0c0,0-4.5,1.73-4.21,4.1c0,0,1.15-1.22,2.01-0.72c0,0-5.07,3.96-5.41,5.54c0,0,3.4-0.72,3.4-0.43
			c0,0.29,0,0.29,0,0.29s-4.68,4.24-5.83,5.54c-1.15,1.29,5.11-2.59,6.76-2.66c0,0-3.74,3.52-3.6,4.75c0,0,5.25-3.16,5.4-2.23
			c0.14,0.93-3.6,1.29-3.02,9.78c0,0,3.02-3.16,4.46-3.31c0,0-0.14,5.18-7.19,6.33c0,0-0.72,0.58,6.76,1.87c0,0-1.87,6.33-5.9,6.19
			c0,0,2.16,2.59,8.63,0c0,0-1.73,3.16-4.03,3.45c0,0,1.73,1.15,3.45,0c0,0,1.58,2.3-1.87,3.02c0,0,2.45,0.72,6.04-0.72
			c0,0,0.4,3.21,1.91,5.53c0.07-1.39-0.33-3.97,1.67-5.31c0,0-0.81,3.83,0.05,4.64c0,0,0.05-1.19,0.97-2.37c0,0,0.32,3.83,1.24,4.64
			c0,0,0.76-2.86,3.88-7.07c0,0,0.11,6.26,1.67,7.45c0,0,3.02-2.97,3.89-5.88c0,0,1.36,2.31,1.19,3.13c0,0,0.81-1.13,0.86-2.21
			c0,0,3.78,3.45,3.51,4.96c0,0,2.11-4.26,1.3-5.45c0,0,3.72,0.76,4.21,4.1c0,0,2.37-3.24,2.26-4.64c0,0,1.35,0.32,1.46,1.03
			c0.11,0.7,0.27-4.15-0.81-5.88c0,0,3.35,3.78,7.18,3.88c0,0-3.67-4.86-3.78-6.04c0,0,4.15,0.65,5.13,1.78c0,0-0.54-3.56-3.67-5.99
			c0,0,5.88,1.24,8.36-1.51c0,0-6.91-0.92-7.55-2.05c0,0,3.67,0.7,4.8-0.38c0,0-3.45-1.73-4.42-3.02c0,0,4.64,1.67,9.55,1.19
			c0,0-4.96-3.72-5.07-5.83c0,0,3.56,1.62,5.4,0.49c0,0-5.23-4.37-5.83-6.15c0,0,1.56-0.54,6.15,1.94c0,0-5.99-9.06-8.2-9.33
			c0,0,1.51-0.49,3.94,0.05c0,0-1.08-2-2.64-2.64c0,0,3.08,0.38,5.83-0.11c0,0-2.54-3.35-4.69-3.08c0,0,3.61-1.67,4.15-2.7
			c0,0-3.13-0.27-3.4-1.35c-0.27-1.08,3.72-0.81,5.4-2.91c0,0-1.46-1.13-2.64-1.08C71.89,29.02,78.32,26.16,76.21,13.53z"/>
		<path class="st1" d="M49.5,84.81c-0.01,0-0.02,0-0.04-0.01c-0.05-0.02-0.09-0.07-0.08-0.13c0.22-1.26-2.58-4.02-3.31-4.7
			c-0.14,1.02-0.83,1.99-0.86,2.04c-0.03,0.04-0.09,0.06-0.14,0.04c-0.05-0.02-0.08-0.07-0.06-0.13c0.12-0.58-0.62-2.07-1.05-2.83
			c-0.95,2.83-3.81,5.65-3.84,5.68c-0.04,0.04-0.1,0.04-0.15,0.01c-1.4-1.06-1.66-5.88-1.71-7.2c-2.92,4-3.66,6.74-3.67,6.77
			c-0.01,0.04-0.04,0.07-0.08,0.08c-0.04,0.01-0.08,0-0.11-0.02c-0.8-0.7-1.15-3.49-1.25-4.42c-0.72,1.06-0.77,2.06-0.77,2.07
			c0,0.04-0.03,0.08-0.07,0.1c-0.04,0.02-0.09,0.01-0.12-0.02c-0.77-0.72-0.31-3.54-0.14-4.46c-1.4,1.12-1.39,2.95-1.38,4.3
			c0,0.27,0,0.53-0.01,0.76c0,0.05-0.04,0.09-0.08,0.1c-0.05,0.01-0.1-0.01-0.12-0.05c-1.33-2.04-1.81-4.78-1.9-5.43
			c-3.52,1.37-5.88,0.7-5.98,0.67c-0.05-0.01-0.08-0.06-0.08-0.11c0-0.05,0.04-0.1,0.09-0.11c1.12-0.23,1.81-0.65,2.05-1.25
			c0.25-0.62-0.06-1.26-0.19-1.5c-1.74,1.07-3.46-0.05-3.48-0.06c-0.04-0.03-0.06-0.07-0.05-0.12c0.01-0.05,0.05-0.08,0.1-0.09
			c1.82-0.23,3.29-2.34,3.78-3.11c-6.24,2.39-8.36-0.05-8.45-0.16c-0.03-0.03-0.03-0.08-0.01-0.12s0.06-0.07,0.11-0.06
			c0.04,0,0.09,0,0.13,0c3.51,0,5.34-5.13,5.62-5.99c-3.02-0.53-6.59-1.27-6.74-1.87c-0.02-0.09,0.02-0.15,0.05-0.18
			c0.02-0.01,0.03-0.02,0.05-0.02c6.24-1.02,7-5.26,7.09-6.08c-1.43,0.31-4.23,3.22-4.25,3.25c-0.03,0.03-0.08,0.04-0.12,0.03
			c-0.04-0.02-0.07-0.05-0.07-0.1c-0.43-6.37,1.58-8.23,2.54-9.12c0.31-0.28,0.51-0.47,0.48-0.65c0-0.03-0.02-0.04-0.04-0.06
			c-0.51-0.25-3.45,1.32-5.18,2.36c-0.03,0.02-0.07,0.02-0.11,0c-0.03-0.02-0.06-0.05-0.06-0.09c-0.13-1.08,2.52-3.76,3.37-4.6
			c-0.95,0.22-2.69,1.1-4.12,1.82c-1.96,0.98-2.39,1.18-2.53,1c-0.1-0.13,0.06-0.3,0.14-0.39c1.09-1.22,5.35-5.11,5.8-5.51v-0.19
			c-0.3-0.06-1.86,0.19-3.26,0.49c-0.04,0.01-0.08,0-0.1-0.03c-0.03-0.03-0.04-0.07-0.03-0.1c0.32-1.47,4.45-4.81,5.31-5.49
			c-0.76-0.24-1.71,0.76-1.72,0.77c-0.03,0.03-0.08,0.04-0.12,0.03c-0.04-0.01-0.07-0.05-0.08-0.09c-0.26-2.12,3.03-3.69,4.02-4.11
			c-1.65-0.56-3.85,0.1-3.87,0.11c-0.04,0.01-0.08,0-0.1-0.02c-0.03-0.02-0.04-0.06-0.04-0.1c0.12-1.14,1.95-1.78,3.09-2.07
			c-4.37-0.15-6.34,0.03-6.36,0.03c-0.04,0-0.08-0.02-0.11-0.05c-0.02-0.04-0.02-0.08,0-0.12c0.82-1.32,3.28-1.46,4.22-1.46
			c-0.47-0.31-0.98-0.53-0.98-0.53c-0.05-0.02-0.08-0.07-0.07-0.12c0.01-0.05,0.05-0.09,0.11-0.09c1.16-0.06,2.52,0.05,3.48,0.16
			c-3.31-1.28-6.27-4.03-6.3-4.06c-0.05-0.04-0.05-0.11-0.01-0.16c0.04-0.05,0.11-0.05,0.16-0.01c1.32,1.18,4.49,1.55,5.34,1.63
			l-0.55-1c-0.01-0.02-0.02-0.04-0.01-0.07c0.07-0.58-0.03-1.4-0.05-1.57c-2.94-3.17-3.82-6.76-3.38-8.91
			c0.41-2.06-0.92-6.24-0.93-6.28c-0.01-0.03-0.01-0.06,0.01-0.09c0.02-0.03,0.04-0.05,0.07-0.05c12.07-2.64,15.99,4.91,16.56,6.19
			c0.44-0.68,0.4-2.31,0.4-2.33c0-0.04,0.02-0.08,0.06-0.1c0.04-0.02,0.08-0.02,0.12,0.01c2.13,1.6,1.87,6.07,1.79,6.99
			c11.61-2.85,18.49,1.51,19.68,2.37c-0.05-6.71,4.08-7.6,4.12-7.6c0.04-0.01,0.08,0.01,0.11,0.04c0.03,0.03,0.03,0.07,0.02,0.11
			c-0.42,1.23-0.21,2.63-0.08,3.27c3.28-8.03,17.11-7.08,17.25-7.07c0.05,0,0.09,0.04,0.1,0.09c1.81,10.85-2.72,14.57-4.04,15.41
			c1.11,0.15,2.27,1.04,2.32,1.08c0.02,0.02,0.04,0.05,0.04,0.08c0,0.03,0,0.06-0.02,0.08c-0.93,1.17-2.58,1.63-3.79,1.96
			c-0.94,0.26-1.68,0.47-1.59,0.85c0.2,0.82,2.45,1.19,3.3,1.26c0.04,0,0.07,0.03,0.09,0.06s0.02,0.07,0,0.11
			c-0.44,0.83-2.75,2.04-3.75,2.53c2.05,0.22,4.18,2.99,4.28,3.12c0.02,0.03,0.03,0.07,0.02,0.11c-0.01,0.04-0.05,0.06-0.09,0.07
			c-2.03,0.36-4.25,0.25-5.28,0.16c1.29,0.81,2.14,2.35,2.18,2.42c0.02,0.04,0.02,0.09-0.01,0.12c-0.03,0.04-0.07,0.05-0.11,0.04
			c-1.65-0.37-2.88-0.25-3.48-0.15c2.47,1.13,7.63,8.9,7.86,9.25c0.03,0.04,0.02,0.1-0.01,0.14c-0.04,0.04-0.09,0.05-0.14,0.02
			c-3.79-2.05-5.51-2.02-5.94-1.96c0.76,1.8,5.7,5.94,5.75,5.98c0.03,0.02,0.04,0.06,0.04,0.09c0,0.04-0.02,0.07-0.05,0.09
			c-1.65,1.02-4.56-0.08-5.32-0.4c0.37,2.06,4.96,5.52,5,5.55c0.04,0.03,0.05,0.08,0.04,0.12c-0.01,0.05-0.05,0.08-0.1,0.08
			c-4.06,0.4-7.98-0.68-9.21-1.06c1.19,1.21,4.09,2.67,4.12,2.68c0.03,0.02,0.06,0.05,0.06,0.08c0.01,0.04-0.01,0.07-0.03,0.1
			c-0.97,0.92-3.61,0.61-4.56,0.46c1.12,0.8,5.5,1.54,7.25,1.77c0.04,0.01,0.08,0.03,0.09,0.07c0.01,0.04,0.01,0.08-0.02,0.11
			c-2.13,2.36-6.61,1.86-8.03,1.63c2.83,2.41,3.36,5.75,3.37,5.78c0.01,0.05-0.02,0.1-0.06,0.12c-0.05,0.02-0.1,0.01-0.13-0.03
			c-0.83-0.97-4.14-1.58-4.9-1.72c0.35,1.36,3.69,5.79,3.73,5.84c0.03,0.03,0.03,0.08,0.01,0.12c-0.02,0.04-0.06,0.06-0.1,0.06
			c-2.99-0.08-5.72-2.41-6.78-3.44c0.69,1.86,0.67,5.27,0.54,5.45c-0.03,0.04-0.08,0.06-0.12,0.05c-0.08-0.02-0.1-0.11-0.11-0.16
			c-0.07-0.46-0.81-0.77-1.23-0.89c-0.05,1.49-2.19,4.43-2.29,4.56c-0.03,0.04-0.07,0.06-0.12,0.04c-0.04-0.01-0.08-0.05-0.08-0.09
			c-0.4-2.75-3.08-3.72-3.89-3.95c0.5,1.45-1.32,5.16-1.4,5.33C49.59,84.79,49.55,84.81,49.5,84.81z M38.39,77.14
			c0.01,0,0.02,0,0.03,0.01c0.05,0.02,0.08,0.06,0.08,0.11c0,0.06,0.12,6.01,1.55,7.29c0.46-0.47,3.01-3.16,3.78-5.76
			c0.01-0.04,0.05-0.07,0.09-0.08c0.05,0,0.09,0.02,0.11,0.05c0.05,0.08,1.05,1.79,1.2,2.8c0.24-0.41,0.61-1.14,0.64-1.83
			c0-0.04,0.03-0.08,0.07-0.1c0.04-0.02,0.09-0.01,0.12,0.02c0.14,0.13,3.16,2.91,3.52,4.59c0.5-1.09,1.73-4.01,1.11-4.92
			c-0.03-0.04-0.03-0.09,0-0.13c0.03-0.04,0.07-0.06,0.12-0.05c0.04,0.01,3.6,0.77,4.25,3.92c0.52-0.75,2.17-3.21,2.09-4.34
			c0-0.04,0.01-0.07,0.04-0.09c0.03-0.02,0.06-0.03,0.1-0.02c0.05,0.01,0.99,0.24,1.38,0.76c0.03-1.1-0.06-4.17-0.86-5.45
			c-0.03-0.05-0.02-0.12,0.03-0.15c0.05-0.03,0.11-0.03,0.15,0.02c0.03,0.04,3.22,3.59,6.86,3.84c-0.69-0.93-3.56-4.83-3.65-5.91
			c0-0.03,0.01-0.07,0.04-0.09s0.06-0.03,0.09-0.03c0.16,0.02,3.63,0.58,4.93,1.57c-0.22-0.94-1.06-3.64-3.56-5.58
			c-0.04-0.03-0.06-0.09-0.03-0.14c0.02-0.05,0.07-0.07,0.13-0.06c0.06,0.01,5.61,1.15,8.1-1.32c-1.21-0.17-6.81-1.01-7.42-2.08
			c-0.02-0.04-0.02-0.09,0.01-0.12c0.03-0.04,0.07-0.05,0.11-0.05c0.03,0.01,3.37,0.63,4.58-0.24c-0.69-0.36-3.44-1.82-4.31-2.98
			c-0.03-0.04-0.03-0.09,0-0.14c0.03-0.04,0.08-0.06,0.13-0.04c0.05,0.02,4.5,1.6,9.21,1.21c-1-0.77-4.79-3.84-4.89-5.73
			c0-0.04,0.02-0.08,0.05-0.1c0.03-0.02,0.07-0.03,0.11-0.01c0.03,0.02,3.35,1.5,5.15,0.57c-0.82-0.69-5.18-4.44-5.74-6.1
			c-0.02-0.06,0.01-0.12,0.07-0.14c0.06-0.02,1.57-0.5,5.84,1.74c-1.16-1.71-5.99-8.68-7.87-8.91c-0.05-0.01-0.09-0.05-0.1-0.1
			c0-0.05,0.03-0.1,0.08-0.12c0.06-0.02,1.47-0.45,3.75,0c-0.33-0.53-1.25-1.88-2.46-2.38c-0.05-0.02-0.08-0.08-0.07-0.13
			c0.01-0.05,0.07-0.09,0.12-0.08c0.03,0,2.95,0.35,5.61-0.08c-0.52-0.64-2.66-3.11-4.47-2.88c-0.06,0.01-0.11-0.03-0.12-0.08
			c-0.02-0.05,0.01-0.11,0.06-0.13c0.03-0.02,3.25-1.51,4.01-2.5c-0.69-0.08-3.06-0.42-3.31-1.42c-0.15-0.6,0.69-0.83,1.75-1.12
			c1.21-0.33,2.7-0.75,3.6-1.8c-0.33-0.24-1.45-0.99-2.4-0.99c-0.03,0-0.05,0-0.08,0c-0.06,0-0.1-0.03-0.12-0.09
			c-0.01-0.05,0.01-0.11,0.06-0.13c0.06-0.03,6.28-2.97,4.27-15.27c-1.21-0.07-14.23-0.63-17.06,7.27
			c-0.02,0.05-0.06,0.08-0.11,0.07c-0.05,0-0.09-0.03-0.11-0.08c-0.02-0.08-0.54-1.89-0.06-3.56c-0.81,0.27-3.87,1.68-3.75,7.55
			c0,0.04-0.02,0.08-0.06,0.1c-0.04,0.02-0.09,0.01-0.12-0.01c-0.07-0.06-7.09-5.61-19.83-2.42c-0.03,0.01-0.07,0-0.1-0.02
			c-0.03-0.02-0.04-0.06-0.04-0.1c0.01-0.05,0.51-4.99-1.5-6.8c-0.01,0.56-0.08,1.9-0.57,2.39c-0.03,0.03-0.07,0.04-0.1,0.03
			c-0.04-0.01-0.07-0.04-0.08-0.07c-0.03-0.09-3.44-8.99-16.26-6.25c0.22,0.71,1.29,4.33,0.9,6.28c-0.42,2.11,0.45,5.63,3.35,8.74
			c0.02,0.02,0.03,0.04,0.03,0.06c0.01,0.04,0.13,0.95,0.06,1.63l0.63,1.16c0.02,0.04,0.02,0.08,0,0.12
			c-0.02,0.03-0.06,0.06-0.1,0.05c-0.13-0.01-2.66-0.19-4.48-0.97c1.36,1.09,3.84,2.86,6.35,3.5c0.06,0.02,0.09,0.07,0.08,0.13
			c-0.01,0.06-0.07,0.1-0.13,0.09c-0.02,0-2.28-0.36-4.21-0.34c0.27,0.14,0.61,0.34,0.9,0.57c0.04,0.03,0.05,0.08,0.04,0.13
			c-0.02,0.05-0.07,0.07-0.11,0.07c-0.03,0-3.15-0.13-4.24,1.16c0.71-0.05,2.96-0.16,7.05,0.02c0.06,0,0.1,0.05,0.11,0.11
			c0,0.06-0.04,0.11-0.1,0.12c-0.03,0.01-3.36,0.55-3.76,1.89c0.61-0.16,2.61-0.6,4.11,0.05c0.04,0.02,0.07,0.06,0.07,0.11
			s-0.03,0.09-0.07,0.1s-4.11,1.6-4.15,3.74c0.37-0.33,1.25-0.99,1.97-0.56c0.03,0.02,0.05,0.05,0.06,0.09
			c0,0.04-0.01,0.07-0.04,0.1c-0.05,0.04-4.69,3.67-5.32,5.3c1.04-0.22,3.04-0.6,3.29-0.4c0.04,0.03,0.06,0.07,0.06,0.12v0.29
			c0,0.03-0.01,0.06-0.04,0.08c-0.05,0.04-4.68,4.26-5.82,5.53c-0.02,0.02-0.03,0.04-0.05,0.06c0.35-0.1,1.31-0.58,2.17-1.02
			c1.64-0.83,3.69-1.85,4.55-1.89c0.05,0,0.09,0.03,0.11,0.07c0.02,0.04,0.01,0.09-0.03,0.13c-0.97,0.91-3.36,3.37-3.55,4.46
			c0.93-0.55,4.48-2.61,5.22-2.27c0.09,0.04,0.15,0.12,0.17,0.23c0.05,0.3-0.19,0.52-0.55,0.85c-0.93,0.86-2.84,2.63-2.49,8.69
			c0.68-0.69,3.08-3.03,4.35-3.16c0.03,0,0.06,0.01,0.09,0.03c0.02,0.02,0.04,0.05,0.04,0.09c0,0.05-0.22,5.23-7.17,6.42
			c0.19,0.17,1.2,0.73,6.65,1.67c0.03,0.01,0.06,0.02,0.08,0.05c0.02,0.03,0.02,0.06,0.01,0.09c-0.08,0.26-1.85,6.12-5.72,6.27
			c0.67,0.53,3.06,1.89,8.3-0.22c0.04-0.02,0.09-0.01,0.13,0.03c0.03,0.04,0.04,0.09,0.02,0.13c-0.07,0.13-1.63,2.94-3.79,3.45
			c0.54,0.26,1.81,0.68,3.05-0.15c0.05-0.03,0.12-0.02,0.16,0.03c0.03,0.04,0.62,0.92,0.27,1.81c-0.23,0.57-0.81,1-1.71,1.27
			c0.88,0.13,2.89,0.23,5.48-0.81c0.03-0.01,0.07-0.01,0.1,0.01c0.03,0.02,0.05,0.05,0.05,0.08c0,0.03,0.37,2.92,1.69,5.16
			c0-0.12,0-0.24,0-0.37c-0.01-1.47-0.01-3.49,1.71-4.66c0.04-0.03,0.09-0.03,0.13,0c0.04,0.03,0.06,0.07,0.05,0.12
			c-0.2,0.95-0.57,3.41-0.13,4.31c0.07-0.43,0.3-1.28,0.96-2.14c0.03-0.04,0.08-0.05,0.12-0.04c0.05,0.01,0.08,0.05,0.08,0.1
			c0,0.04,0.3,3.43,1.08,4.43c0.23-0.71,1.19-3.35,3.85-6.92C38.32,77.16,38.35,77.14,38.39,77.14z M15.66,63.42L15.66,63.42
			L15.66,63.42z"/>
	</g>
	<g>
		<path class="st1" d="M45.46,37.33c-1.01,12.05,10.79,11.4,10.79,11.4c8.54-0.91,11.76,1.44,11.76,1.44s1.56-0.47,6.15,2.01
			c0,0-5.99-9.06-8.2-9.33c0,0,1.51-0.49,3.94,0.05c0,0-1.08-2-2.64-2.64c0,0,3.08,0.38,5.83-0.11c0,0-2.54-3.35-4.69-3.08
			c0,0,3.61-1.67,4.15-2.7c0,0-3.13-0.27-3.4-1.35c-0.27-1.08,3.72-0.81,5.4-2.91c0,0-1.46-1.13-2.64-1.08c0,0,6.42-2.86,4.32-15.48
			c0,0-14.24-1.08-17.27,7.34c0,0-0.58-1.99,0-3.69c0,0-4.17,0.81-4.03,7.72c0,0-3.4-2.35-4.22-2.15
			C49.88,22.97,46.46,25.28,45.46,37.33z"/>
	</g>
	<g>
		<path class="st1" d="M18.59,45.19c0,0,0,0,0-0.29c0-0.29-3.4,0.43-3.4,0.43c0.34-1.58,5.41-5.54,5.41-5.54
			c-0.86-0.5-2.02,0.72-2.02,0.72c-0.29-2.37,4.21-4.1,4.21-4.1c-1.73-0.76-4.21,0-4.21,0c0.16-1.56,3.88-2.16,3.88-2.16
			c-5.07-0.22-7.28,0-7.28,0c0.97-1.56,4.48-1.4,4.48-1.4c-0.54-0.43-1.29-0.76-1.29-0.76c2.05-0.11,4.69,0.32,4.69,0.32
			c-3.78-0.97-7.45-4.42-7.45-4.42c1.56,1.4,5.61,1.67,5.61,1.67l-0.65-1.19c0.08-0.67-0.05-1.64-0.05-1.64
			c-2.95-3.17-3.8-6.73-3.38-8.84c0.42-2.11-0.93-6.34-0.93-6.34c13.16-2.88,16.51,6.29,16.51,6.29c0.59-0.59,0.54-2.55,0.54-2.55
			c2.3,1.73,1.73,7.05,1.73,7.05c3.17-0.79,3.03,0.94,3.61,3.31c1.72,7.06,2.7,10.16,1.94,13.37
			C39.79,42.34,37.31,49.36,18.59,45.19z"/>
	</g>
	<g>
		<path class="st0" d="M27.06,27.46c-0.01,0-0.02,0-0.02-0.01c-1.12-0.54-1.15-1.34-1.15-1.37c0-0.02,0.01-0.04,0.03-0.05
			c0.02-0.01,0.05,0,0.06,0.01c0.19,0.2,0.91,0.23,1.36,0.22c-0.98-0.46-1.49-0.85-1.52-1.17c-0.01-0.15,0.09-0.22,0.1-0.22
			c0.02-0.01,0.05-0.01,0.06,0c0.97,0.72,2.07,0.61,2.44,0.54c-0.4-0.31-0.48-0.79-0.49-0.81c0-0.03,0.01-0.06,0.04-0.06
			c0.03-0.01,0.06,0.01,0.07,0.04c0.04,0.11,0.11,0.18,0.22,0.22c0.36,0.14,0.98-0.13,1.11-0.19c0.23-1.53-1.62-2.17-1.64-2.17
			c-0.03-0.01-0.04-0.04-0.04-0.07c0.01-0.03,0.03-0.05,0.06-0.04c0.94,0.12,1.64,0.48,2.09,1.07c0.69,0.91,0.54,2.02,0.53,2.07
			c0,0.03-0.03,0.05-0.06,0.05c-0.03,0-0.05-0.03-0.05-0.06c0-0.01,0.15-1.11-0.51-1.98c-0.36-0.47-0.89-0.79-1.57-0.95
			c0.57,0.3,1.48,0.98,1.29,2.14c0,0.02-0.01,0.03-0.03,0.04c-0.03,0.02-0.78,0.38-1.23,0.21c-0.03-0.01-0.06-0.03-0.08-0.04
			c0.08,0.17,0.21,0.39,0.45,0.53c0.02,0.01,0.03,0.03,0.03,0.06c0,0.02-0.02,0.04-0.04,0.05c-0.01,0-1.41,0.37-2.62-0.51
			c-0.01,0.02-0.03,0.05-0.02,0.09c0.02,0.16,0.25,0.53,1.67,1.17c0.02,0.01,0.04,0.04,0.03,0.06c0,0.03-0.03,0.04-0.05,0.05
			c-0.05,0-1.13,0.06-1.57-0.16c0.06,0.24,0.27,0.77,1.07,1.15c0.03,0.01,0.04,0.05,0.03,0.08C27.1,27.44,27.08,27.46,27.06,27.46z"
			/>
	</g>
	<g>
		<path class="st0" d="M62.69,30.5c-0.03,0-0.05-0.02-0.06-0.05c-0.01-0.03,0.01-0.06,0.04-0.07c0.01,0,1.1-0.22,1.7-1.14
			c0.33-0.49,0.45-1.1,0.38-1.8c-0.1,0.63-0.43,1.72-1.59,1.93c-0.02,0-0.04,0-0.05-0.02c-0.03-0.02-0.62-0.61-0.6-1.09
			c0-0.03,0.01-0.06,0.01-0.09c-0.14,0.13-0.29,0.33-0.35,0.6c0,0.02-0.02,0.04-0.04,0.04c-0.02,0-0.04,0-0.06-0.02
			c-0.01-0.01-0.81-1.21-0.39-2.64c-0.02-0.01-0.06-0.01-0.09,0.01c-0.15,0.07-0.42,0.42-0.55,1.96c0,0.03-0.02,0.05-0.05,0.05
			c-0.03,0-0.05-0.01-0.06-0.03c-0.02-0.05-0.44-1.05-0.37-1.54c-0.21,0.13-0.64,0.5-0.73,1.39c0,0.03-0.02,0.06-0.06,0.05
			c-0.03,0-0.05-0.03-0.05-0.06c0.13-1.24,0.88-1.53,0.91-1.54c0.02-0.01,0.05,0,0.06,0.02c0.02,0.02,0.02,0.04,0.01,0.06
			c-0.12,0.24,0.09,0.94,0.24,1.36c0.11-1.08,0.31-1.69,0.6-1.82c0.14-0.06,0.24,0.01,0.24,0.02c0.02,0.01,0.03,0.04,0.02,0.06
			c-0.36,1.15,0.11,2.16,0.3,2.48c0.16-0.49,0.59-0.72,0.61-0.73c0.03-0.01,0.06-0.01,0.07,0.02c0.02,0.02,0.01,0.06-0.01,0.08
			c-0.09,0.07-0.14,0.17-0.14,0.28c-0.02,0.39,0.44,0.88,0.55,0.99c1.52-0.29,1.51-2.25,1.51-2.27c0-0.03,0.02-0.05,0.05-0.06
			c0.02-0.01,0.06,0.02,0.06,0.04c0.2,0.92,0.09,1.71-0.32,2.33c-0.63,0.95-1.73,1.17-1.77,1.18C62.7,30.5,62.7,30.5,62.69,30.5z"/>
	</g>
	<g>
		<path class="st1" d="M53.28,39.54c1.91,0.72,2.66,2.61,2.45,3.96c-0.22,1.35-1.58,2.9-3.81,2.43c-1.87-0.58-3.28-1.58-3.17-3.27
			C48.88,40.34,51.12,38.61,53.28,39.54z"/>
		<path class="st0" d="M52.71,46.18c-0.25,0-0.53-0.03-0.82-0.09c-2.31-0.71-3.41-1.87-3.3-3.45c0.07-1.26,0.74-2.39,1.78-3.03
			c0.92-0.57,2.01-0.65,2.99-0.23c1.97,0.74,2.78,2.69,2.55,4.14c-0.13,0.82-0.64,1.61-1.35,2.1C54.15,45.9,53.54,46.18,52.71,46.18
			z M52.06,39.45c-0.52,0-1.04,0.15-1.53,0.45c-0.95,0.58-1.55,1.62-1.62,2.77c-0.1,1.41,0.93,2.45,3.05,3.1
			c0.89,0.18,1.72,0.04,2.39-0.42c0.64-0.44,1.09-1.14,1.21-1.87c0.21-1.32-0.54-3.09-2.34-3.77l-0.01,0
			C52.84,39.53,52.45,39.45,52.06,39.45z"/>
	</g>
	<g>
		<path class="st1" d="M33.13,37.81c-1.91,0.72-2.66,2.61-2.45,3.96c0.22,1.35,1.58,2.9,3.81,2.43c1.87-0.58,3.28-1.58,3.17-3.27
			C37.53,38.62,35.29,36.88,33.13,37.81z"/>
		<path class="st0" d="M33.71,44.45c-0.83,0-1.44-0.28-1.84-0.56c-0.71-0.49-1.22-1.27-1.35-2.1c-0.23-1.45,0.58-3.4,2.55-4.14
			c0.98-0.42,2.07-0.34,2.99,0.23c1.04,0.64,1.71,1.78,1.78,3.04c0.11,1.58-1,2.74-3.29,3.44C34.25,44.42,33.97,44.45,33.71,44.45z
			 M34.35,37.72c-0.39,0-0.77,0.08-1.15,0.24l-0.01,0c-1.8,0.68-2.55,2.45-2.34,3.77c0.12,0.74,0.57,1.44,1.21,1.87
			c0.67,0.46,1.5,0.61,2.4,0.42c2.1-0.65,3.13-1.69,3.03-3.09c-0.07-1.13-0.69-2.19-1.62-2.77C35.39,37.87,34.88,37.72,34.35,37.72z
			"/>
	</g>
	<g>
		<path class="st0" d="M49.61,35.25c0,0-1.85,0.72-2.25,2.63c-0.4,1.91,0.31,0.29,0.31,0.29s1.28-1.9,2.28-2.56
			C51.03,34.9,49.61,35.25,49.61,35.25z"/>
	</g>
	<g>
		<path class="st0" d="M36.37,34.24c0,0,1.91,0.54,2.5,2.39c0.58,1.86-0.28,0.32-0.28,0.32s-1.47-1.76-2.52-2.32
			C34.92,34.04,36.37,34.24,36.37,34.24z"/>
	</g>
	<g>
		<g>
			<path class="st1" d="M41.77,45.16c-1.95-0.07-4.32,0.62-2.28,3.45c0,0,1.64,2.78,4.68,0.56C47.54,46.73,43.73,45.23,41.77,45.16z
				"/>
		</g>
		<g>
			<path class="st1" d="M44.95,53.81c-0.21,0-0.41-0.02-0.6-0.05c-1.36-0.25-2.68-1.34-2.87-2.98c-0.61,1.47-2.13,2.17-3.48,1.99
				c-1.45-0.19-2.78-1.41-2.49-3.7c0.01-0.06,0.06-0.1,0.13-0.1c0.06,0.01,0.11,0.06,0.1,0.13c-0.29,2.28,1.06,3.28,2.3,3.44
				c1.47,0.19,3.19-0.68,3.46-2.69c0.01-0.06,0.06-0.1,0.13-0.1c0.06,0.01,0.1,0.06,0.1,0.11c0,0,0,0.01,0,0.02
				c-0.27,2,1.17,3.37,2.67,3.64c1.24,0.22,2.85-0.26,3.33-2.37c0.01-0.06,0.08-0.1,0.14-0.09c0.06,0.01,0.1,0.07,0.09,0.14
				C47.5,53.15,46.17,53.81,44.95,53.81z"/>
		</g>
	</g>
	<g>
		<path class="st1" d="M40.93,61.11c-0.39,0-0.76-0.03-1.11-0.1c-1.91-0.39-3.67-1.78-6.33-3.88c-0.56-0.44-1.13-0.9-1.77-1.39
			c-0.02-0.02-0.03-0.05-0.01-0.08c0.02-0.03,0.05-0.03,0.08-0.01c0.63,0.49,1.21,0.95,1.77,1.39c2.65,2.09,4.4,3.48,6.29,3.86
			c2.23,0.45,5.63-0.72,7.34-1.69c1.85-1.05,3.64-1.76,3.66-1.76c0.03-0.01,0.06,0,0.07,0.03c0.01,0.03,0,0.06-0.03,0.07
			c-0.02,0.01-1.8,0.71-3.64,1.76C45.78,60.13,43.09,61.11,40.93,61.11z"/>
	</g>
	<g>
		<path class="st2" d="M43.96,53.53c0,0-2.93,3.37-5.25-0.86c0,0,2.23-0.24,2.75-2.17C41.46,50.5,41.61,52.73,43.96,53.53z"/>
		<path class="st1" d="M41.47,54.92c-0.08,0-0.17,0-0.26-0.01c-0.99-0.11-1.87-0.84-2.6-2.18c-0.02-0.03-0.02-0.07,0-0.11
			c0.02-0.03,0.05-0.06,0.09-0.06c0.02,0,2.16-0.25,2.65-2.08c0.01-0.05,0.07-0.09,0.12-0.08c0.06,0.01,0.1,0.05,0.1,0.11
			c0.01,0.09,0.17,2.17,2.42,2.93c0.04,0.01,0.06,0.04,0.07,0.08c0.01,0.04,0,0.08-0.02,0.1C43.99,53.67,42.89,54.92,41.47,54.92z
			 M38.89,52.76c0.68,1.18,1.47,1.83,2.34,1.92c1.17,0.13,2.19-0.76,2.52-1.1c-1.63-0.63-2.16-1.95-2.33-2.64
			C40.83,52.28,39.38,52.66,38.89,52.76z"/>
	</g>
</g>
<g>
	<path class="st3" d="M135.71,42.04c0,5.68-1.49,10.28-4.47,13.8c-3.19,3.73-7.59,5.6-13.2,5.6c-0.94,0-2.35-0.05-4.24-0.16
		c-1.89-0.11-3.3-0.16-4.24-0.16c-1.01,0-1.51,0.43-1.51,1.3c0,1.08,0.11,2.69,0.32,4.82c0.21,2.14,0.32,3.73,0.32,4.79
		c0,0.54-0.25,0.81-0.74,0.81c-1.43,0-3.58-0.04-6.44-0.12c-2.86-0.08-5.01-0.12-6.44-0.12c-0.68,0-1.02-0.34-1.02-1.02
		c0-2.6,0.04-6.52,0.12-11.74c0.08-5.22,0.12-9.13,0.12-11.74c0-7.37-0.32-15.11-0.95-23.23l-0.04-0.49
		c-0.05-0.45,0.3-0.72,1.06-0.81c1.83-0.23,5.87-0.35,12.11-0.35c3.68,0,7.22,0.05,10.59,0.14c5.56,0.16,10.04,1.91,13.45,5.24
		C133.98,32.02,135.71,36.51,135.71,42.04z M121.67,42.61c0-5.47-2.66-8.2-7.99-8.2c-3.75,0-5.73,0.21-5.91,0.63
		c-0.16,0.31-0.25,3.02-0.25,8.13c0,0.73,0.03,1.8,0.09,3.22c0.06,1.42,0.09,2.49,0.09,3.22c0,0.47,2.11,0.7,6.34,0.7
		C119.12,50.32,121.67,47.75,121.67,42.61z"/>
	<path class="st3" d="M176.58,61.65c0,1.01-0.2,2.86-0.6,5.56c-0.42,2.93-0.8,4.68-1.13,5.24c-0.28,0.45-0.67,0.67-1.16,0.67
		c-0.21,0-0.56-0.04-1.06-0.11c-1.71-0.23-6.71-0.35-15-0.35c-1.81,0-4.49-0.01-8.06-0.04c-3.57-0.02-6.24-0.04-8.03-0.04
		c-0.77,0-1.16-0.34-1.16-1.02c0-2.63,0.15-6.58,0.44-11.84c0.29-5.27,0.44-9.22,0.44-11.84c0-2.68-0.14-7.66-0.42-14.96
		c-0.07-1.88-0.2-4.68-0.39-8.41l-0.04-0.49c-0.05-0.54,0.25-0.81,0.88-0.81c1.74,0,4.35,0.05,7.83,0.14
		c3.48,0.09,6.09,0.14,7.83,0.14c1.71,0,4.29-0.05,7.74-0.14c3.45-0.09,6.03-0.14,7.74-0.14c1.22,0,1.92,0.46,2.11,1.37
		c0.12,0.54,0.3,2.18,0.55,4.91c0.25,2.73,0.37,4.39,0.37,4.98c0,0.49-0.23,0.74-0.7,0.74c-0.14,0-0.39-0.01-0.74-0.04
		c-6.24-0.52-11.85-0.77-16.82-0.77c-1.24,0-2.01,0.29-2.29,0.88c-0.12,0.28-0.18,1.19-0.18,2.71c0,1.6,0.23,2.65,0.7,3.17
		c0.4,0.45,1.16,0.67,2.29,0.67c0.23,0,0.69-0.02,1.37-0.05s1.24-0.05,1.69-0.05c2.96,0,5.95-0.08,8.98-0.25
		c0.26-0.02,0.9-0.08,1.94-0.18c0.8-0.09,1.43-0.14,1.9-0.14c0.56,0,0.84,0.27,0.84,0.81c0-0.49-0.21,1.3-0.63,5.39
		c-0.19,1.88-0.28,3.75-0.28,5.63c0,0.47-0.34,0.7-1.02,0.7l-3.17-0.35c-1.34-0.14-4.39-0.21-9.15-0.21h-3.73
		c-0.96,0-1.53,0.23-1.69,0.7c-0.02,0.12-0.04,0.84-0.04,2.18c0,1.78,0.12,2.93,0.35,3.45c0.4,0.89,1.9,1.42,4.51,1.58
		c-0.05,0,1.67,0,5.14,0c1.24,0,3.09-0.11,5.54-0.33c2.45-0.22,4.29-0.33,5.51-0.33C176.32,60.38,176.58,60.8,176.58,61.65z"/>
	<path class="st3" d="M215.54,33.98c0,0.47-0.26,0.7-0.77,0.7c-0.89,0-4.42-0.18-10.59-0.53c-0.14,5.94-0.21,10.08-0.21,12.43
		c0,2.77,0.11,6.93,0.33,12.5c0.22,5.56,0.33,9.73,0.33,12.5c0,0.45-0.11,0.73-0.32,0.85c-0.07,0.05-0.4,0.11-0.99,0.18
		c-1.41,0.19-3.47,0.28-6.19,0.28c-3.03,0-5.15-0.09-6.37-0.28c-0.66-0.12-0.99-0.48-0.99-1.09c0-2.77,0.12-6.92,0.35-12.46
		c0.23-5.54,0.35-9.69,0.35-12.46c0-1.83-0.09-5.91-0.28-12.25c-4.69,0.47-8.44,0.7-11.23,0.7c-0.38,0-0.56-0.12-0.56-0.35
		c0-0.3,0.16-1.21,0.49-2.71c0.38-1.64,0.59-2.64,0.63-2.99c0.07-1.1,0.15-2.21,0.25-3.31c0.16-1.76,0.45-2.64,0.84-2.64
		c0.05,0,0.21,0.01,0.49,0.04c3.8,0.49,9.42,0.74,16.86,0.74c2.11,0,6.01-0.22,11.69-0.67c3.05-0.23,4.59-0.35,4.61-0.35
		c0.47,0,0.74,0.03,0.81,0.09c0.07,0.06,0.12,0.29,0.14,0.69c0,0.63-0.02,1.51-0.07,2.64c-0.05,1.24-0.07,2.12-0.07,2.64
		c0,0.59,0.08,1.45,0.23,2.59C215.47,32.57,215.54,33.42,215.54,33.98z"/>
	<path class="st3" d="M262.64,70.62c0,1.01-0.43,1.67-1.3,1.97c-0.7,0.23-2.56,0.35-5.56,0.35c-2.89,0-5-0.12-6.34-0.35
		c-0.63-0.12-1.05-0.24-1.25-0.37c-0.2-0.13-0.45-0.46-0.76-1c-1.71-3.14-3.42-6.29-5.1-9.43c-2.79-5.07-4.46-7.86-5-8.38
		c-2.53,0.92-3.8,1.57-3.8,1.97c0,1.76,0.07,4.42,0.21,7.97s0.21,6.22,0.21,8.01c0,0.73-0.32,1.14-0.95,1.23
		c-1.22,0.19-3.43,0.28-6.62,0.28c-3.05,0-5.07-0.09-6.05-0.28c-0.68-0.14-1.02-0.5-1.02-1.09c0-2.53,0.12-6.36,0.37-11.47
		c0.25-5.12,0.37-8.95,0.37-11.51c0-2.72-0.12-6.81-0.35-12.27c-0.23-5.46-0.35-9.54-0.35-12.27c0-0.52,0.25-0.77,0.74-0.77
		c0.73,0,1.82,0.04,3.29,0.11c1.47,0.07,2.56,0.11,3.29,0.11c0.75,0,1.87-0.04,3.34-0.11c1.48-0.07,2.58-0.11,3.31-0.11
		c0.4,0,0.6,0.21,0.6,0.63c0,1.74-0.09,4.36-0.26,7.87c-0.18,3.51-0.26,6.13-0.26,7.87c0,2.02,0.55,3.03,1.65,3.03
		c2.79,0,4.96-0.76,6.51-2.29c1.15-1.13,2.31-3.18,3.49-6.16c0.75-2.28,1.98-5.63,3.7-10.07c0.26-0.59,0.79-0.88,1.58-0.88
		c0.61,0,1.53,0.04,2.76,0.11c1.23,0.07,2.15,0.11,2.76,0.11c0.63,0,1.58-0.02,2.83-0.07c1.25-0.05,2.19-0.07,2.8-0.07
		c0.56,0,0.84,0.27,0.84,0.81c0,0.77-0.49,2.66-1.48,5.67c-2.91,8.87-6.25,14.41-10.03,16.61c-0.77,0.45-1.16,0.81-1.16,1.09
		c0-0.02,2.17,3.5,6.49,10.56C260.47,65.09,262.64,69.29,262.64,70.62z"/>
	<path class="st3" d="M315.58,47.96c0,7.32-2.33,13.46-7,18.41c-4.76,5.02-10.79,7.53-18.09,7.53c-7.25,0-13.27-2.53-18.06-7.6
		c-4.69-4.95-7.04-11.06-7.04-18.34c0-7.3,2.35-13.43,7.04-18.41c4.79-5.09,10.81-7.64,18.06-7.64c7.2,0,13.21,2.55,18.02,7.64
		C313.22,34.57,315.58,40.71,315.58,47.96z M302.24,47.89c0-3.52-1.07-6.51-3.2-8.98c-2.23-2.58-5.08-3.87-8.55-3.87
		c-3.31,0-6.11,1.34-8.41,4.01c-2.23,2.58-3.34,5.55-3.34,8.91c0,3.59,1.04,6.58,3.13,8.98c2.21,2.51,5.08,3.77,8.62,3.77
		c3.31,0,6.13-1.33,8.45-3.98C301.13,54.19,302.24,51.24,302.24,47.89z"/>
	<path class="st3" d="M367.92,24.3c0,2.67-0.11,6.69-0.33,12.06c-0.22,5.36-0.33,9.39-0.33,12.09v23.2c0,0.63-0.34,0.95-1.02,0.95
		c-0.56,0-1.41,0.02-2.55,0.07c-1.14,0.05-1.99,0.07-2.55,0.07c-0.61,0-1.53-0.05-2.75-0.14s-2.13-0.14-2.75-0.14
		c-0.42,0-0.93-0.39-1.51-1.16c-1.69-2.28-5.49-7.32-11.4-15.14c-1.62-2.18-4.08-5.4-7.39-9.64c-0.09-0.14-0.27-0.28-0.53-0.42
		c-0.19,0.16-0.28,0.42-0.28,0.77c0,2.72,0.08,6.81,0.23,12.25c0.15,5.44,0.23,9.53,0.23,12.25c0,0.82-0.32,1.23-0.95,1.23h-12.18
		c-0.68,0-1.02-0.36-1.02-1.09c0-2.53,0.12-6.36,0.37-11.47c0.25-5.12,0.37-8.95,0.37-11.51c0-2.7-0.11-6.73-0.33-12.11
		c-0.22-5.37-0.33-9.4-0.33-12.07c0-0.52,0.46-0.77,1.37-0.77c1.36,0,3.04-0.09,5.03-0.28c0.47-0.05,1.4-0.2,2.78-0.46
		c1.17-0.21,2.1-0.32,2.78-0.32c0.28,0,0.72,0.4,1.3,1.2l13.13,17.99c1.17,1.62,2.94,3.99,5.31,7.11c0.59,0.73,1.09,1.09,1.51,1.09
		c0.3,0,0.46-0.92,0.46-2.75c0-2.46-0.14-6.17-0.41-11.12s-0.4-8.67-0.4-11.16c0-0.87,0.25-1.3,0.74-1.3c1.41,0,3.53-0.06,6.37-0.18
		c2.84-0.12,4.96-0.18,6.37-0.18C367.69,23.21,367.92,23.58,367.92,24.3z"/>
	<path class="st3" d="M420.79,71.47c0.05,0.63-0.28,0.95-0.99,0.95c-0.45,0-1.73-0.26-3.85-0.77s-3.43-0.87-3.92-1.06
		c-4.9,1.92-9.61,2.89-14.11,2.89c-7.25,0-13.2-2.42-17.85-7.25c-4.6-4.76-6.9-10.78-6.9-18.06c0-7.44,2.23-13.61,6.69-18.51
		c4.6-5.07,10.57-7.6,17.92-7.6c3.57,0,6.92,0.68,10.07,2.04c3.4,1.5,6.08,3.61,8.03,6.34c0.4,0.56,0.6,0.96,0.6,1.2
		c0,0.75-1.05,2.43-3.15,5.05c-2.1,2.62-3.46,3.92-4.07,3.92c-0.14,0-0.68-0.48-1.62-1.44c-1.15-1.15-2.32-2.04-3.52-2.67
		c-1.78-0.96-3.75-1.44-5.91-1.44c-3.52,0-6.31,1.31-8.38,3.94c-1.92,2.42-2.89,5.43-2.89,9.05c0,3.83,1,6.85,2.99,9.08
		c2.06,2.3,4.99,3.45,8.76,3.45c2.39,0,5.07-0.6,8.03-1.79c-0.07-0.77-0.28-2.75-0.63-5.91c-0.31-2.44-0.46-4.41-0.46-5.91
		c0-0.45,0.15-0.72,0.46-0.81c0.12-0.05,0.3-0.07,0.56-0.07c0.68,0,1.71,0.06,3.08,0.19c1.37,0.13,2.41,0.19,3.12,0.19
		c0.75,0,1.88-0.05,3.38-0.16c1.5-0.11,2.63-0.16,3.38-0.16c0.59,0,0.88,0.39,0.88,1.16c0,1.13-0.07,2.83-0.19,5.1
		c-0.13,2.28-0.19,3.98-0.19,5.1c0,3.03,0.22,7.56,0.67,13.59L420.79,71.47z"/>
</g>
<text transform="matrix(1 0 0 1 100.6689 218.6908)" style="font-family:'BerlinSansFBDemi-Bold'; font-size:72.0869px;">PETKONG</text>
</svg>
